<svg xmlns="http://www.w3.org/2000/svg" viewBox="0 0 28.2 18.67"><defs><style>.cls-1{opacity:0.4;}.cls-2{fill:none;stroke:#000;stroke-miterlimit:10;stroke-width:0.7px;}</style></defs><title>uploadImage</title><g id="Layer_2" data-name="Layer 2"><g id="Layer_1-2" data-name="Layer 1"><g class="cls-1"><rect class="cls-2" x="0.35" y="0.35" width="27.5" height="17.97" rx="1.15"/><path class="cls-2" d="M.35,12.48A3.43,3.43,0,0,1,4.46,9.34a5.12,5.12,0,0,1,2,1.3A13.63,13.63,0,0,1,8.33,12.8c.4.57,1,1.26,1.6,1a1.53,1.53,0,0,0,.58-.47l2.75-3.14a1.72,1.72,0,0,1,.82-.63c.88-.21,1.45,1,2.28,1.35s1.91-.25,2.6-1a5.16,5.16,0,0,1,2.33-1.82c1.16-.24,2.25.62,3.16,1.42l3.4,3"/><circle class="cls-2" cx="18.61" cy="4.15" r="1.9"/></g></g></g></svg>